<svg width="50" height="46" viewBox="0 0 50 46" fill="none" xmlns="http://www.w3.org/2000/svg">
<path d="M46.6095 0.799927L27.8801 14.8672L31.3437 6.5677L46.6095 0.799927Z" fill="#E2761B" stroke="#E2761B" stroke-width="0.190355" stroke-linecap="round" stroke-linejoin="round"/>
<path d="M3.37177 0.799866L21.9506 15.0004L18.6565 6.56764L3.37177 0.799866Z" fill="#E4761B" stroke="#E4761B" stroke-width="0.190355" stroke-linecap="round" stroke-linejoin="round"/>
<path d="M39.8706 33.4069L34.8823 41.1353L45.5553 44.1049L48.6235 33.5782L39.8706 33.4069Z" fill="#E4761B" stroke="#E4761B" stroke-width="0.190355" stroke-linecap="round" stroke-linejoin="round"/>
<path d="M1.39539 33.5782L4.4448 44.1049L15.1177 41.1353L10.1295 33.4069L1.39539 33.5782Z" fill="#E4761B" stroke="#E4761B" stroke-width="0.190355" stroke-linecap="round" stroke-linejoin="round"/>
<path d="M14.5154 20.3494L11.5413 24.8989L22.139 25.3748L21.7625 13.8583L14.5154 20.3494Z" fill="#E4761B" stroke="#E4761B" stroke-width="0.190355" stroke-linecap="round" stroke-linejoin="round"/>
<path d="M35.4659 20.3493L28.1247 13.7249L27.88 25.3746L38.4588 24.8987L35.4659 20.3493Z" fill="#E4761B" stroke="#E4761B" stroke-width="0.190355" stroke-linecap="round" stroke-linejoin="round"/>
<path d="M15.118 41.1359L21.4804 37.9951L15.9839 33.655L15.118 41.1359Z" fill="#E4761B" stroke="#E4761B" stroke-width="0.190355" stroke-linecap="round" stroke-linejoin="round"/>
<path d="M28.5011 37.9951L34.8823 41.1359L33.9976 33.655L28.5011 37.9951Z" fill="#E4761B" stroke="#E4761B" stroke-width="0.190355" stroke-linecap="round" stroke-linejoin="round"/>
<path d="M34.8823 41.136L28.5011 37.9952L29.0093 42.202L28.9529 43.9723L34.8823 41.136Z" fill="#D7C1B3" stroke="#D7C1B3" stroke-width="0.190355" stroke-linecap="round" stroke-linejoin="round"/>
<path d="M15.1182 41.1361L21.0476 43.9724L21.0099 42.2021L21.4805 37.9952L15.1182 41.1361Z" fill="#D7C1B3" stroke="#D7C1B3" stroke-width="0.190355" stroke-linecap="round" stroke-linejoin="round"/>
<path d="M21.1415 30.8756L15.8333 29.2956L19.5791 27.5634L21.1415 30.8756Z" fill="#233447" stroke="#233447" stroke-width="0.190355" stroke-linecap="round" stroke-linejoin="round"/>
<path d="M28.8403 30.8756L30.4026 27.5634L34.1673 29.2956L28.8403 30.8756Z" fill="#233447" stroke="#233447" stroke-width="0.190355" stroke-linecap="round" stroke-linejoin="round"/>
<path d="M15.1178 41.1353L16.0213 33.4069L10.1295 33.5782L15.1178 41.1353Z" fill="#CD6116" stroke="#CD6116" stroke-width="0.190355" stroke-linecap="round" stroke-linejoin="round"/>
<path d="M33.9791 33.4069L34.8827 41.1353L39.8709 33.5782L33.9791 33.4069Z" fill="#CD6116" stroke="#CD6116" stroke-width="0.190355" stroke-linecap="round" stroke-linejoin="round"/>
<path d="M38.459 24.8987L27.8801 25.3746L28.859 30.8758L30.4213 27.5637L34.186 29.2959L38.459 24.8987Z" fill="#CD6116" stroke="#CD6116" stroke-width="0.190355" stroke-linecap="round" stroke-linejoin="round"/>
<path d="M15.8332 29.2959L19.5979 27.5637L21.1414 30.8758L22.1391 25.3746L11.5414 24.8987L15.8332 29.2959Z" fill="#CD6116" stroke="#CD6116" stroke-width="0.190355" stroke-linecap="round" stroke-linejoin="round"/>
<path d="M11.5414 24.8988L15.9838 33.6551L15.8332 29.296L11.5414 24.8988Z" fill="#E4751F" stroke="#E4751F" stroke-width="0.190355" stroke-linecap="round" stroke-linejoin="round"/>
<path d="M34.1858 29.2959L33.9976 33.655L38.4587 24.8987L34.1858 29.2959Z" fill="#E4751F" stroke="#E4751F" stroke-width="0.190355" stroke-linecap="round" stroke-linejoin="round"/>
<path d="M22.1393 25.3748L21.1417 30.8761L22.384 37.3672L22.6664 28.8203L22.1393 25.3748Z" fill="#E4751F" stroke="#E4751F" stroke-width="0.190355" stroke-linecap="round" stroke-linejoin="round"/>
<path d="M27.8802 25.3748L27.3719 28.8012L27.5978 37.3672L28.859 30.8761L27.8802 25.3748Z" fill="#E4751F" stroke="#E4751F" stroke-width="0.190355" stroke-linecap="round" stroke-linejoin="round"/>
<path d="M28.8593 30.8756L27.5981 37.3667L28.5016 37.9949L33.9981 33.6548L34.1863 29.2957L28.8593 30.8756Z" fill="#F6851B" stroke="#F6851B" stroke-width="0.190355" stroke-linecap="round" stroke-linejoin="round"/>
<path d="M15.8333 29.2957L15.9838 33.6548L21.4803 37.9949L22.3838 37.3667L21.1415 30.8756L15.8333 29.2957Z" fill="#F6851B" stroke="#F6851B" stroke-width="0.190355" stroke-linecap="round" stroke-linejoin="round"/>
<path d="M28.9535 43.9722L29.0099 42.2019L28.5393 41.7831H21.4429L21.0099 42.2019L21.0476 43.9722L15.1182 41.1359L17.1888 42.8491L21.3864 45.7996H28.5958L32.8123 42.8491L34.8829 41.1359L28.9535 43.9722Z" fill="#C0AD9E" stroke="#C0AD9E" stroke-width="0.190355" stroke-linecap="round" stroke-linejoin="round"/>
<path d="M28.5018 37.9957L27.5982 37.3675H22.3841L21.4806 37.9957L21.01 42.2025L21.4429 41.7838H28.5394L29.01 42.2025L28.5018 37.9957Z" fill="#161616" stroke="#161616" stroke-width="0.190355" stroke-linecap="round" stroke-linejoin="round"/>
<path d="M47.4 15.7809L49 8.0144L46.6095 0.799927L28.5012 14.3913L35.4659 20.3494L45.3106 23.2619L47.4942 20.6921L46.553 20.0068L48.0589 18.6172L46.8918 17.7035L48.3977 16.5423L47.4 15.7809Z" fill="#763D16" stroke="#763D16" stroke-width="0.190355" stroke-linecap="round" stroke-linejoin="round"/>
<path d="M1.00012 8.01446L2.60012 15.781L1.58365 16.5424L3.08953 17.7036L1.9413 18.6173L3.44718 20.0068L2.506 20.6921L4.67071 23.2619L14.5154 20.3495L21.4801 14.3914L3.37189 0.799988L1.00012 8.01446Z" fill="#763D16" stroke="#763D16" stroke-width="0.190355" stroke-linecap="round" stroke-linejoin="round"/>
<path d="M45.3104 23.2622L35.4657 20.3497L38.4587 24.8992L33.9975 33.6556L39.8704 33.5794H48.6234L45.3104 23.2622Z" fill="#F6851B" stroke="#F6851B" stroke-width="0.190355" stroke-linecap="round" stroke-linejoin="round"/>
<path d="M14.5155 20.3497L4.6708 23.2622L1.39551 33.5794H10.1296L15.9837 33.6556L11.5414 24.8992L14.5155 20.3497Z" fill="#F6851B" stroke="#F6851B" stroke-width="0.190355" stroke-linecap="round" stroke-linejoin="round"/>
<path d="M27.8802 25.3748L28.5014 14.3913L31.3626 6.56772H18.6567L21.4802 14.3913L22.139 25.3748L22.3649 28.8393L22.3837 37.3672H27.5979L27.6355 28.8393L27.8802 25.3748Z" fill="#F6851B" stroke="#F6851B" stroke-width="0.190355" stroke-linecap="round" stroke-linejoin="round"/>
</svg>
